<svg width="268" height="376" viewBox="0 0 268 376" fill="none" xmlns="http://www.w3.org/2000/svg">
<mask id="mask0_79_14" style="mask-type:alpha" maskUnits="userSpaceOnUse" x="0" y="0" width="268" height="376">
<path d="M0 0H267.985V375.582H18.806C8.41971 375.582 0 367.162 0 356.776V0Z" fill="#E737AC"/>
</mask>
<g mask="url(#mask0_79_14)">
<path d="M0 0H267.985V375.582H18.806C8.41971 375.582 0 367.162 0 356.776V0Z" fill="#E737AC"/>
<path d="M24.056 51.772H-65.8993C-71.8637 51.772 -77.5838 54.1439 -81.8012 58.3659C-86.0187 62.5879 -88.3881 68.3141 -88.3881 74.2849V239.38C-88.3881 245.351 -86.0187 251.077 -81.8012 255.299C-77.5838 259.521 -71.8637 261.893 -65.8993 261.893H158.989C164.953 261.893 170.673 259.521 174.891 255.299C179.108 251.077 181.478 245.351 181.478 239.38V164.337M46.5448 261.893V321.928" stroke="white" stroke-width="14.8755" stroke-linecap="round" stroke-linejoin="round"/>
<path d="M106.515 51.772L76.5299 81.7893L106.515 111.807M151.493 51.772L181.478 81.7893L151.493 111.807M-28.4179 321.928H121.507" stroke="white" stroke-width="14.8755" stroke-linecap="round" stroke-linejoin="round"/>
</g>
</svg>
