<svg width="268" height="376" viewBox="0 0 268 376" fill="none" xmlns="http://www.w3.org/2000/svg">
<mask id="mask0_73_134" style="mask-type:alpha" maskUnits="userSpaceOnUse" x="0" y="0" width="268" height="376">
<rect x="0.0150146" width="267.985" height="375.488" fill="#0092B1"/>
</mask>
<g mask="url(#mask0_73_134)">
<path d="M0.0150146 0H268V356.682C268 367.069 259.58 375.488 249.194 375.488H0.0150146V0Z" fill="#00D2FF"/>
<path d="M388.3 72.3698C344.07 30.9564 306.735 10.7969 275.887 20.8079C269.926 22.7662 264.28 25.5772 259.123 29.1536C243.354 39.9732 237.343 57.9015 209.261 77.1707C181.178 96.44 162.279 95.6041 146.534 106.408C141.124 110.078 136.251 114.485 132.055 119.5C111.569 144.712 117.053 186.769 139.561 243.045C162.556 300.522 191.546 338.512 218.503 331.127C237.368 325.948 243.52 305.671 245.421 280.736C247.537 252.366 261.733 234.343 299.28 208.58C336.827 182.816 358.038 176.545 385.265 184.78C409.186 192.015 430.713 193.1 442.086 177.852C460.507 153.125 433.987 115.14 388.3 72.3698Z" stroke="white" stroke-width="14.875" stroke-miterlimit="10"/>
<path d="M283.44 140.154C289.917 135.71 291.568 126.852 287.127 120.369C282.686 113.887 273.835 112.234 267.358 116.679C260.881 121.123 259.23 129.981 263.671 136.464C268.112 142.946 276.962 144.599 283.44 140.154Z" fill="white"/>
<path d="M291.552 96.6271C298.029 92.1827 299.68 83.3247 295.239 76.8421C290.798 70.3596 281.948 68.7073 275.471 73.1517C268.993 77.5961 267.342 86.4542 271.783 92.9367C276.224 99.4192 285.075 101.071 291.552 96.6271Z" fill="white"/>
<path d="M178.697 153.358L217.292 209.699M226.141 162.215L169.847 200.842" stroke="white" stroke-width="14.875" stroke-linecap="round" stroke-linejoin="round"/>
</g>
</svg>
