<svg width="67" height="64" viewBox="0 0 67 64" fill="none" xmlns="http://www.w3.org/2000/svg">
<path d="M45.1915 24.5445H21.1202C11.1502 24.5445 3.06677 32.6279 3.06677 42.5979C3.06677 52.5679 11.1502 60.6514 21.1202 60.6514H45.1915C55.1615 60.6514 63.2449 52.5679 63.2449 42.5979C63.2449 32.6279 55.1615 24.5445 45.1915 24.5445Z" stroke="black" stroke-width="6.01781" stroke-linejoin="round"/>
<path d="M21.1202 36.5801V48.6158M15.1024 42.598H27.138M33.1558 21.5356V12.0786H45.1914V3.48218" stroke="black" stroke-width="6.01781" stroke-linecap="round" stroke-linejoin="round"/>
<path d="M45.1915 48.6157C46.7875 48.6157 48.3181 47.9817 49.4467 46.8531C50.5752 45.7246 51.2093 44.1939 51.2093 42.5979C51.2093 41.0019 50.5752 39.4712 49.4467 38.3427C48.3181 37.2141 46.7875 36.5801 45.1915 36.5801C43.5954 36.5801 42.0648 37.2141 40.9362 38.3427C39.8077 39.4712 39.1736 41.0019 39.1736 42.5979C39.1736 44.1939 39.8077 45.7246 40.9362 46.8531C42.0648 47.9817 43.5954 48.6157 45.1915 48.6157Z" stroke="black" stroke-width="6.01781" stroke-linejoin="round"/>
</svg>
