<svg width="67" height="47" viewBox="0 0 67 47" fill="none" xmlns="http://www.w3.org/2000/svg">
<path d="M19.5725 39.0392C18.7636 39.0404 17.9826 38.7439 17.3781 38.2064L0.65564 23.3412L18.3068 7.64986C18.9647 7.08702 19.8172 6.80486 20.681 6.86405C21.5448 6.92323 22.3509 7.31904 22.9259 7.96636C23.5009 8.61368 23.7989 9.46079 23.7559 10.3255C23.7128 11.1903 23.3321 12.0036 22.6956 12.5906L10.6032 23.3412L21.7669 33.2623C22.2685 33.7074 22.6228 34.2944 22.7828 34.9456C22.9429 35.5967 22.9011 36.2811 22.663 36.9079C22.4249 37.5347 22.0017 38.0743 21.4498 38.455C20.8978 38.8356 20.243 39.0394 19.5725 39.0392ZM49.1343 39.0326L66.7854 23.3412L50.063 8.47607C49.4078 7.89407 48.5482 7.59619 47.6734 7.64794C46.7986 7.69969 45.9802 8.09684 45.3982 8.75202C44.8162 9.4072 44.5183 10.2667 44.5701 11.1416C44.6218 12.0164 45.019 12.8348 45.6741 13.4168L56.8379 23.3412L44.7455 34.0886C44.0899 34.6706 43.6923 35.4892 43.6402 36.3643C43.5882 37.2394 43.8859 38.0994 44.4679 38.755C45.0499 39.4106 45.8685 39.8082 46.7436 39.8602C47.6187 39.9123 48.4787 39.6146 49.1343 39.0326ZM33.6743 43.7156L40.284 4.0575C40.3685 3.62408 40.3653 3.17812 40.2745 2.74596C40.1838 2.31379 40.0074 1.90419 39.7557 1.54136C39.504 1.17852 39.1822 0.869796 38.8092 0.633428C38.4362 0.39706 38.0196 0.23784 37.5841 0.165173C37.1485 0.0925051 36.7028 0.107864 36.2733 0.210342C35.8437 0.31282 35.4391 0.500339 35.0833 0.761822C34.7274 1.0233 34.4276 1.35345 34.2015 1.73275C33.9754 2.11206 33.8276 2.53283 33.7668 2.97021L27.1571 42.6283C27.0726 43.0617 27.0758 43.5076 27.1665 43.9398C27.2573 44.372 27.4337 44.7816 27.6854 45.1444C27.937 45.5072 28.2589 45.816 28.6319 46.0523C29.0049 46.2887 29.4215 46.4479 29.857 46.5206C30.2926 46.5933 30.7383 46.5779 31.1678 46.4754C31.5974 46.3729 32.002 46.1854 32.3578 45.9239C32.7137 45.6625 33.0135 45.3323 33.2396 44.953C33.4657 44.5737 33.6135 44.1529 33.6743 43.7156Z" fill="black"/>
</svg>
