<svg width="44" height="54" viewBox="0 0 44 54" fill="none" xmlns="http://www.w3.org/2000/svg">
<path d="M43.2427 0.0343018H32.6289V3.57225H11.4012V0.0343018H0.787415V53.1035H11.4012V49.5655H32.6289V53.1035H43.2427V0.0343018ZM7.8633 3.57225V7.11019H4.32536V3.57225H7.8633ZM39.7048 3.57225V7.11019H36.1669V3.57225H39.7048ZM32.6289 7.11019V24.7999H11.4012V7.11019H32.6289ZM7.8633 10.6481V14.1861H4.32536V10.6481H7.8633ZM39.7048 10.6481V14.1861H36.1669V10.6481H39.7048ZM7.8633 17.724V21.262H4.32536V17.724H7.8633ZM39.7048 17.724V21.262H36.1669V17.724H39.7048ZM7.8633 24.7999V28.3379H4.32536V24.7999H7.8633ZM39.7048 24.7999V28.3379H36.1669V24.7999H39.7048ZM32.6289 28.3379V46.0276H11.4012V28.3379H32.6289ZM7.8633 31.8758V35.4137H4.32536V31.8758H7.8633ZM39.7048 31.8758V35.4137H36.1669V31.8758H39.7048ZM7.8633 38.9517V42.4896H4.32536V38.9517H7.8633ZM39.7048 38.9517V42.4896H36.1669V38.9517H39.7048ZM7.8633 46.0276V49.5655H4.32536V46.0276H7.8633ZM39.7048 46.0276V49.5655H36.1669V46.0276H39.7048Z" fill="black"/>
</svg>
